<svg width="126" height="55" viewBox="0 0 126 55" fill="none" xmlns="http://www.w3.org/2000/svg">
<circle cx="100" cy="27" r="22" fill="black"/>
<circle cx="26" cy="27" r="22" fill="black"/>
<path d="M99.567 0C87.3327 0 77.0607 8.80969 74.2229 20.6497C70.5301 18.6374 66.394 17.5772 62.1886 17.5647C58.4055 17.5647 54.7204 18.4137 51.3336 20.0251C48.2901 8.50214 38.1652 0 26.146 0C11.7286 0 0 12.2173 0 27.2329C0 42.2484 11.7286 54.4657 26.146 54.4657C40.5634 54.4657 52.2921 42.2484 52.2921 27.2329C52.2921 26.7989 52.2487 26.3744 52.2298 25.9442C55.2469 24.1647 58.6858 23.2265 62.1886 23.2271C66.2 23.2271 70.1152 24.4894 73.4399 26.7914C73.4361 26.9404 73.4172 27.0838 73.4172 27.2329C73.4172 42.2484 85.1477 54.4657 99.5651 54.4657C113.983 54.4657 125.709 42.2484 125.709 27.2329C125.709 12.2173 113.984 0 99.567 0ZM26.146 48.8033C14.8495 48.8033 5.66054 39.1257 5.66054 27.231C5.66054 15.3363 14.8514 5.65866 26.146 5.65866C37.4407 5.65866 46.6315 15.3363 46.6315 27.231C46.6315 39.1257 37.4426 48.8033 26.146 48.8033ZM99.567 48.8033C88.2705 48.8033 79.0796 39.1257 79.0796 27.231C79.0796 15.3363 88.2705 5.65866 99.567 5.65866C110.862 5.65866 120.051 15.3363 120.051 27.231C120.051 39.1257 110.862 48.8033 99.567 48.8033Z" fill="url(#paint0_linear_26_35)"/>
<defs>
<linearGradient id="paint0_linear_26_35" x1="-29.4579" y1="-207.657" x2="133.183" y2="-131.816" gradientUnits="userSpaceOnUse">
<stop stop-color="#51A4FB"/>
<stop offset="1" stop-color="#51A4FB"/>
</linearGradient>
</defs>
</svg>
