<svg width="180" height="149" viewBox="0 0 180 149" fill="none" xmlns="http://www.w3.org/2000/svg">
<path d="M0 93.7669C0 42.822 40.2521 0 89.7271 0C139.204 0 179.454 42.822 179.454 93.7669H173.794C173.794 46.5957 136.081 5.66054 89.7271 5.66054C43.373 5.66054 5.66054 46.5957 5.66054 93.7669H0Z" fill="url(#paint0_linear_28_44)"/>
<circle cx="127" cy="121" r="22" fill="black"/>
<circle cx="53" cy="121" r="22" fill="black"/>
<path d="M126.567 94C114.333 94 104.061 102.81 101.223 114.65C97.5301 112.637 93.394 111.577 89.1886 111.565C85.4055 111.565 81.7204 112.414 78.3336 114.025C75.2901 102.502 65.1652 94 53.146 94C38.7286 94 27 106.217 27 121.233C27 136.248 38.7286 148.466 53.146 148.466C67.5634 148.466 79.2921 136.248 79.2921 121.233C79.2921 120.799 79.2487 120.374 79.2298 119.944C82.2469 118.165 85.6858 117.226 89.1886 117.227C93.2 117.227 97.1152 118.489 100.44 120.791C100.436 120.94 100.417 121.084 100.417 121.233C100.417 136.248 112.148 148.466 126.565 148.466C140.983 148.466 152.709 136.248 152.709 121.233C152.709 106.217 140.984 94 126.567 94ZM53.146 142.803C41.8495 142.803 32.6605 133.126 32.6605 121.231C32.6605 109.336 41.8514 99.6587 53.146 99.6587C64.4407 99.6587 73.6315 109.336 73.6315 121.231C73.6315 133.126 64.4426 142.803 53.146 142.803ZM126.567 142.803C115.27 142.803 106.08 133.126 106.08 121.231C106.08 109.336 115.27 99.6587 126.567 99.6587C137.862 99.6587 147.051 109.336 147.051 121.231C147.051 133.126 137.862 142.803 126.567 142.803Z" fill="url(#paint1_linear_28_44)"/>
<defs>
<linearGradient id="paint0_linear_28_44" x1="-8.64978" y1="0.128731" x2="153.991" y2="75.9693" gradientUnits="userSpaceOnUse">
<stop stop-color="#51A4FB"/>
<stop offset="1" stop-color="#51A4FB"/>
</linearGradient>
<linearGradient id="paint1_linear_28_44" x1="-2.45793" y1="-113.657" x2="160.183" y2="-37.8163" gradientUnits="userSpaceOnUse">
<stop stop-color="#51A4FB"/>
<stop offset="1" stop-color="#51A4FB"/>
</linearGradient>
</defs>
</svg>
