<svg width="204" height="204" viewBox="0 0 204 204" fill="none" xmlns="http://www.w3.org/2000/svg">
<circle cx="102" cy="102" r="86" stroke="#544D55" stroke-width="6"/>
<circle cx="102" cy="102" r="99" stroke="#DEFCFE" stroke-width="6"/>
<path d="M84 56C79.4 56 72.5 58.3 72.5 67.5C72.5 76.7 72.5 81.3 72.5 88.2C72.5 95.1 61 99.7 61 99.7C61 99.7 72.5 104.3 72.5 111.2C72.5 118.1 72.5 127.3 72.5 136.5C72.5 145.7 79.4 148 84 148" stroke="#51A4FB" stroke-width="6" stroke-linecap="round" stroke-linejoin="round"/>
<path d="M120 56C124.6 56 131.5 58.3 131.5 67.5C131.5 76.7 131.5 81.3 131.5 88.2C131.5 95.1 143 99.7 143 99.7C143 99.7 131.5 104.3 131.5 111.2C131.5 118.1 131.5 127.3 131.5 136.5C131.5 145.7 124.6 148 120 148" stroke="#51A4FB" stroke-width="6" stroke-linecap="round" stroke-linejoin="round"/>
</svg>
