<svg width="204" height="204" viewBox="0 0 204 204" fill="none" xmlns="http://www.w3.org/2000/svg">
<circle cx="102" cy="102" r="86" stroke="#544D55" stroke-width="6"/>
<circle cx="102" cy="102" r="99" stroke="#DEFCFE" stroke-width="6"/>
<path d="M102 28L93.3397 43H110.66L102 28ZM103.5 54V41.5H100.5V54H103.5Z" fill="#51A4FB"/>
<path d="M39.7192 65.5389L48.4314 80.5089L57.0396 65.479L39.7192 65.5389ZM63.0263 77.1593L52.1794 70.9468L50.6884 73.5501L61.5353 79.7626L63.0263 77.1593Z" fill="#51A4FB"/>
<path d="M165.562 65.9999L156.849 80.9698L148.241 65.9399L165.562 65.9999ZM142.255 77.6202L153.101 71.4078L154.592 74.011L143.745 80.2235L142.255 77.6202Z" fill="#51A4FB"/>
<path d="M38.0001 143.181L54.9813 139.769L43.536 126.769L38.0001 143.181ZM56.5237 124.874L47.1416 133.134L49.124 135.386L58.5061 127.126L56.5237 124.874Z" fill="#51A4FB"/>
<path d="M165.515 143.181L148.534 139.769L159.979 126.769L165.515 143.181ZM146.991 124.874L156.373 133.134L154.391 135.386L145.009 127.126L146.991 124.874Z" fill="#51A4FB"/>
<path fill-rule="evenodd" clip-rule="evenodd" d="M102 73.1667C97.6876 73.1654 93.4884 74.5465 90.0187 77.1072C86.5489 79.6679 83.9914 83.2735 82.7214 87.3946C81.4515 91.5157 81.5361 95.9354 82.9627 100.005C84.3893 104.075 87.0829 107.58 90.648 110.006C84.4605 112.275 79.0937 116.344 75.2383 121.69C71.3829 127.035 69.2154 133.412 69.0147 139.999C68.9928 140.728 69.2615 141.437 69.7618 141.968C70.262 142.499 70.9528 142.81 71.6822 142.832C72.4115 142.853 73.1197 142.585 73.6509 142.084C74.1821 141.584 74.4928 140.893 74.5147 140.164C74.733 133.019 77.7247 126.241 82.8557 121.264C87.9867 116.287 94.8538 113.504 102.002 113.504C109.15 113.504 116.017 116.287 121.148 121.264C126.279 126.241 129.271 133.019 129.489 140.164C129.492 140.53 129.568 140.892 129.712 141.229C129.857 141.565 130.067 141.869 130.331 142.123C130.594 142.377 130.906 142.576 131.248 142.708C131.589 142.84 131.954 142.903 132.32 142.892C132.686 142.881 133.046 142.798 133.379 142.646C133.712 142.494 134.012 142.277 134.26 142.008C134.508 141.739 134.7 141.423 134.825 141.079C134.95 140.734 135.004 140.368 134.985 140.003C134.785 133.415 132.618 127.037 128.763 121.691C124.907 116.345 119.54 112.275 113.352 110.006C116.917 107.58 119.611 104.075 121.037 100.005C122.464 95.9354 122.548 91.5157 121.279 87.3946C120.009 83.2735 117.451 79.6679 113.981 77.1072C110.512 74.5465 106.312 73.1654 102 73.1667V73.1667ZM87.3333 93.3334C87.3333 89.4436 88.8786 85.7131 91.6291 82.9625C94.3796 80.212 98.1102 78.6667 102 78.6667C105.89 78.6667 109.62 80.212 112.371 82.9625C115.121 85.7131 116.667 89.4436 116.667 93.3334C116.667 97.2233 115.121 100.954 112.371 103.704C109.62 106.455 105.89 108 102 108C98.1102 108 94.3796 106.455 91.6291 103.704C88.8786 100.954 87.3333 97.2233 87.3333 93.3334V93.3334Z" fill="#51A4FB"/>
</svg>
