<svg width="204" height="204" viewBox="0 0 204 204" fill="none" xmlns="http://www.w3.org/2000/svg">
<circle cx="102" cy="102" r="86" stroke="#544D55" stroke-width="6"/>
<circle cx="102" cy="102" r="99" stroke="#DEFCFE" stroke-width="6"/>
<g clip-path="url(#clip0_35_214)">
<path d="M152.133 62.0667C135.347 57.4674 118.463 50.3059 103.305 41.3565C102.5 40.8812 101.501 40.8812 100.696 41.3565C85.101 50.563 69.129 57.3371 51.8668 62.0667C50.7516 62.3719 49.9786 63.3856 49.9786 64.542V90.7638C49.9786 117.767 62.4357 135.64 72.8862 145.88C84.1369 156.904 97.2423 163 102.001 163C106.758 163 119.864 156.904 131.114 145.88C141.565 135.641 154.021 117.767 154.021 90.7638V64.5417C154.021 63.3856 153.248 62.3719 152.133 62.0667ZM148.889 90.7636C148.889 115.984 137.27 132.662 127.522 142.213C116.458 153.054 104.63 157.867 102.001 157.867C99.3716 157.867 87.5419 153.054 76.4781 142.213C66.7307 132.662 55.1114 115.984 55.1114 90.7636V66.4899C71.6191 61.8029 86.9925 55.2619 102.001 46.5401C116.635 55.0305 132.775 61.8968 148.889 66.489V90.7636Z" fill="#51A4FB"/>
<path d="M79.2531 66.2029C78.7337 64.884 77.2437 64.2361 75.9246 64.7558C71.3401 66.5622 66.6345 68.2249 61.9387 69.698C60.8686 70.034 60.1404 71.0252 60.1404 72.1466V82.0569C60.1404 83.4742 61.2896 84.6232 62.7067 84.6232C64.1237 84.6232 65.2729 83.4742 65.2729 82.0569V74.0221C69.4855 72.6591 73.6936 71.1515 77.806 69.531C79.1249 69.0117 79.7728 67.5218 79.2531 66.2029Z" fill="#51A4FB"/>
<path d="M84.1281 66.6896C84.4724 66.6896 84.8219 66.6202 85.1572 66.4739L85.2044 66.4534C86.5028 65.8844 87.0875 64.373 86.5185 63.0751C85.949 61.7767 84.429 61.1893 83.132 61.7579L83.0906 61.7758C81.7915 62.3431 81.2048 63.8533 81.7722 65.152C82.1932 66.116 83.138 66.6896 84.1281 66.6896Z" fill="#51A4FB"/>
<path d="M132.577 123.751C131.391 122.976 129.8 123.309 129.024 124.496C126.909 127.732 124.428 130.832 121.649 133.707C119.364 136.071 116.887 138.275 114.288 140.256C113.161 141.116 112.944 142.726 113.803 143.853C114.309 144.515 115.073 144.864 115.846 144.864C116.389 144.864 116.936 144.692 117.4 144.338C120.204 142.2 122.875 139.824 125.339 137.275C128.344 134.167 131.029 130.812 133.321 127.303C134.097 126.116 133.763 124.526 132.577 123.751Z" fill="#51A4FB"/>
<path d="M108.328 144.281L108.181 144.368C106.954 145.078 106.535 146.648 107.245 147.874C107.721 148.696 108.583 149.155 109.469 149.155C109.905 149.155 110.348 149.044 110.752 148.809L110.922 148.71C112.145 147.993 112.556 146.421 111.839 145.198C111.123 143.976 109.551 143.566 108.328 144.281Z" fill="#51A4FB"/>
<path d="M84.5074 96.7624C82.9316 95.1864 80.8359 94.3191 78.6071 94.3191C76.3782 94.3191 74.2823 95.1866 72.7058 96.7624C69.4526 100.016 69.4526 105.311 72.7058 108.565L87.8595 123.718C89.4355 125.293 91.5312 126.161 93.7603 126.161C95.9894 126.161 98.0851 125.293 99.6613 123.717L131.296 92.0828C134.549 88.8281 134.549 83.5342 131.295 80.2815C129.719 78.7055 127.624 77.8381 125.394 77.8381C123.165 77.8381 121.069 78.7057 119.493 80.2815L93.7601 106.015L84.5074 96.7624ZM123.123 83.911C123.729 83.3045 124.536 82.9707 125.394 82.9707C126.253 82.9707 127.06 83.3045 127.666 83.911C128.919 85.1631 128.919 87.2014 127.666 88.454L96.0321 120.088C95.4256 120.695 94.6186 121.028 93.7603 121.028C92.902 121.028 92.095 120.695 91.4883 120.088L76.3351 104.935C75.0824 103.683 75.0824 101.645 76.3346 100.392C76.9412 99.7859 77.7483 99.4516 78.6068 99.4516C79.4654 99.4516 80.2719 99.7855 80.8784 100.392L91.9453 111.459C92.4269 111.94 93.0793 112.211 93.7601 112.211C94.4408 112.211 95.0932 111.94 95.5743 111.459L123.123 83.911Z" fill="#51A4FB"/>
</g>
<defs>
<clipPath id="clip0_35_214">
<rect width="122" height="122" fill="white" transform="translate(41 41)"/>
</clipPath>
</defs>
</svg>
