<svg width="204" height="204" viewBox="0 0 204 204" fill="none" xmlns="http://www.w3.org/2000/svg">
<circle cx="102" cy="102" r="86" stroke="#544D55" stroke-width="6"/>
<circle cx="102" cy="102" r="99" stroke="#DEFCFE" stroke-width="6"/>
<path d="M51.3532 63.3895C51.8197 63.3895 52.2791 63.2001 52.6082 62.8686C52.9397 62.5394 53.1291 62.0801 53.1291 61.6136C53.1291 61.1471 52.9397 60.6877 52.6082 60.3586C52.2791 60.0271 51.822 59.8376 51.3532 59.8376C50.8844 59.8376 50.4273 60.0271 50.0982 60.3586C49.7667 60.6877 49.5773 61.1471 49.5773 61.6136C49.5773 62.0801 49.7667 62.5394 50.0982 62.8686C50.4273 63.2001 50.8867 63.3895 51.3532 63.3895Z" fill="#51A4FB"/>
<path d="M57.0362 63.3895C57.505 63.3895 57.962 63.2001 58.2912 62.8686C58.6227 62.5394 58.8121 62.0801 58.8121 61.6136C58.8121 61.1471 58.6227 60.6877 58.2912 60.3586C57.962 60.0271 57.5027 59.8376 57.0362 59.8376C56.5697 59.8376 56.1103 60.0271 55.7812 60.3586C55.4497 60.6877 55.2603 61.1471 55.2603 61.6136C55.2603 62.0801 55.4497 62.5394 55.7812 62.8686C56.1103 63.2001 56.5697 63.3895 57.0362 63.3895Z" fill="#51A4FB"/>
<path d="M62.7192 63.3895C63.1856 63.3895 63.645 63.2001 63.9742 62.8686C64.3057 62.5394 64.4951 62.0801 64.4951 61.6136C64.4951 61.1471 64.3057 60.6877 63.9742 60.3586C63.645 60.0271 63.1856 59.8376 62.7192 59.8376C62.2527 59.8376 61.7933 60.0271 61.4642 60.3586C61.1327 60.6877 60.9432 61.1471 60.9432 61.6136C60.9432 62.0801 61.1327 62.5394 61.4642 62.8686C61.7933 63.2001 62.2527 63.3895 62.7192 63.3895Z" fill="#51A4FB"/>
<path d="M70.2964 63.3895H142.281C143.262 63.3895 144.057 62.5944 144.057 61.6136C144.057 60.6328 143.262 59.8376 142.281 59.8376H70.2964C69.3157 59.8376 68.5205 60.6328 68.5205 61.6136C68.5205 62.5944 69.3157 63.3895 70.2964 63.3895Z" fill="#51A4FB"/>
<path d="M149.858 63.3895H153.647C154.628 63.3895 155.423 62.5944 155.423 61.6136C155.423 60.6328 154.628 59.8376 153.647 59.8376H149.858C148.877 59.8376 148.082 60.6328 148.082 61.6136C148.082 62.5944 148.877 63.3895 149.858 63.3895Z" fill="#51A4FB"/>
<path d="M146.069 78.7808H111.972C108.903 78.7808 106.407 81.277 106.407 84.3453V84.4637H104.394C101.326 84.4637 98.8298 86.96 98.8298 90.0283V105.301H94.8043V99.4999C94.8043 96.4316 92.3081 93.9354 89.2397 93.9354H58.9305C55.8622 93.9354 53.366 96.4316 53.366 99.4999V114.655C53.366 117.723 55.8622 120.219 58.9305 120.219H89.2397C92.3081 120.219 94.8043 117.723 94.8043 114.655V108.853H98.8298V124.126C98.8298 127.194 101.326 129.691 104.394 129.691H106.407V129.809C106.407 132.877 108.903 135.374 111.972 135.374H146.069C149.138 135.374 151.634 132.877 151.634 129.809V126.02C151.634 122.952 149.138 120.456 146.069 120.456H111.972C108.903 120.456 106.407 122.952 106.407 126.02V126.139H104.394C103.285 126.139 102.382 125.236 102.382 124.126V108.853H106.407V108.972C106.407 112.04 108.903 114.536 111.972 114.536H146.069C149.138 114.536 151.634 112.04 151.634 108.972V105.183C151.634 102.115 149.138 99.6183 146.069 99.6183H111.972C108.903 99.6183 106.407 102.115 106.407 105.183V105.301H102.382V90.0283C102.382 88.9185 103.285 88.0156 104.394 88.0156H106.407V88.134C106.407 91.2023 108.903 93.6986 111.972 93.6986H146.069C149.138 93.6986 151.634 91.2023 151.634 88.134V84.3453C151.634 81.277 149.138 78.7808 146.069 78.7808ZM91.2525 114.655C91.2525 115.764 90.3496 116.667 89.2397 116.667H58.9305C57.8207 116.667 56.9178 115.764 56.9178 114.655V99.4999C56.9178 98.3901 57.8207 97.4872 58.9305 97.4872H89.2397C90.3496 97.4872 91.2525 98.3901 91.2525 99.4999V114.655ZM109.959 126.02C109.959 124.911 110.862 124.008 111.972 124.008H146.069C147.179 124.008 148.082 124.911 148.082 126.02V129.809C148.082 130.919 147.179 131.822 146.069 131.822H111.972C110.862 131.822 109.959 130.919 109.959 129.809V126.02ZM109.959 105.183C109.959 104.073 110.862 103.17 111.972 103.17H146.069C147.179 103.17 148.082 104.073 148.082 105.183V108.972C148.082 110.081 147.179 110.984 146.069 110.984H111.972C110.862 110.984 109.959 110.081 109.959 108.972V105.183ZM148.082 88.134C148.082 89.2438 147.179 90.1467 146.069 90.1467H111.972C110.862 90.1467 109.959 89.2438 109.959 88.134V84.3453C109.959 83.2355 110.862 82.3326 111.972 82.3326H146.069C147.179 82.3326 148.082 83.2355 148.082 84.3453V88.134Z" fill="#51A4FB"/>
<path d="M153.647 52.2603H51.3532C46.1959 52.2603 42 56.4562 42 61.6135V137.386C42 142.544 46.1959 146.74 51.3532 146.74H153.647C158.804 146.74 163 142.544 163 137.386V61.6135C163 56.4562 158.804 52.2603 153.647 52.2603ZM51.3532 55.8121H153.647C156.846 55.8121 159.448 58.4147 159.448 61.6135V67.4149H45.5519V61.6135C45.5519 58.4147 48.1544 55.8121 51.3532 55.8121ZM153.647 143.188H51.3532C48.1544 143.188 45.5519 140.585 45.5519 137.386V70.9667H159.448V137.386C159.448 140.585 156.846 143.188 153.647 143.188Z" fill="#51A4FB"/>
</svg>
